#!OML:ASF X:\für Bonn\!DataBase\2005_08_11_Bastian_Final\c3d\Bastian.ASF
:FULLY-SPECIFIED
:DEGREES
207
root 1.13922 10.2524 18.3882 -565.053 -17.106 -173.871
lowerback 77.1126 2.04045 11.3229
upperback 22.7524 -8.71676 1.05465
thorax 5.86624 -10.0219 -0.921755
lowerneck -10.0595 -8.39251 -9.47813
upperneck -25.4819 -10.3725 26.3934
head -3.5967 -8.10051 10.2556
rclavicle -2.06736e-014 -6.57977e-014
rhumerus 5.00782 45.0384 -66.2966
rradius 41.7352
rwrist -14.8697
rhand -19.6868 1.81741
rfingers 7.12502
rthumb 6.64215 -28.0584
lclavicle -2.06736e-014 -6.57977e-014
lhumerus 10.1097 -25.5449 47.8257
lradius 25.0198
lwrist 34.3839
lhand -20.6463 -1.752
lfingers 7.12502
lthumb 5.71587 28.1509
rfemur -56.4891 -19.3588 25.2817
rtibia 115.178
rfoot -31.0505 -4.25484
rtoes -7.33788
lfemur -61.3434 10.6071 -21.7848
ltibia 110.71
lfoot -20.9589 -15.1005
ltoes 3.0745
208
root 1.1273 10.0688 18.3823 -565.507 -17.1176 -173.762
lowerback 77.2943 1.98137 11.4031
upperback 22.7706 -8.80434 1.01989
thorax 5.91295 -10.0879 -0.97059
lowerneck -10.1391 -8.38424 -9.42086
upperneck -25.276 -10.3781 26.3838
head -3.52406 -8.07972 10.2169
rclavicle 1.27222e-014 -5.56597e-015
rhumerus 4.9938 45.7519 -66.1866
rradius 41.6692
rwrist -15.11
rhand -19.7518 1.83345
rfingers 7.12502
rthumb 6.57944 -28.0443
lclavicle 1.27222e-014 -5.56597e-015
lhumerus 9.86647 -26.0029 47.7096
lradius 24.8786
lwrist 34.3648
lhand -20.3819 -1.07363
lfingers 7.12502
lthumb 5.97109 28.8222
rfemur -57.1806 -19.8986 25.3029
rtibia 116.658
rfoot -31.3271 -4.17182
rtoes -6.91574
lfemur -62.2006 11.0315 -21.9355
ltibia 112.248
lfoot -21.1902 -15.3153
ltoes 3.90814
209
root 1.1147 9.88338 18.3749 -565.959 -17.1025 -173.641
lowerback 77.4318 1.95234 11.4739
upperback 22.7921 -8.8633 1.0067
thorax 5.96035 -10.1449 -1.00216
lowerneck -10.1743 -8.38294 -9.40935
upperneck -25.0885 -10.3857 26.3927
head -3.4589 -8.05941 10.1966
rclavicle 1.59028e-015 1.88845e-014
rhumerus 4.91035 46.4423 -66.0999
rradius 41.6696
rwrist -15.4109
rhand -19.7831 1.7652
rfingers 7.12502
rthumb 6.54923 -28.1135
lclavicle 1.59028e-015 1.88845e-014
lhumerus 9.58984 -26.3815 47.7247
lradius 24.6953
lwrist 34.3264
lhand -20.0715 -0.447971
lfingers 7.12502
lthumb 6.2708 29.4392
rfemur -57.8728 -20.4006 25.3522
rtibia 118.129
rfoot -31.6146 -4.10726
rtoes -6.6154
lfemur -63.0734 11.4772 -22.0826
ltibia 113.782
lfoot -21.4395 -15.5123
ltoes 4.68567
210
root 1.1005 9.69968 18.368 -566.465 -17.0959 -173.486
lowerback 77.5916 1.86501 11.5863
upperback 22.8135 -8.9612 0.964132
thorax 6.00829 -10.2129 -1.06999
lowerneck -10.223 -8.36602 -9.36405
upperneck -24.8955 -10.3797 26.3817
head -3.39687 -8.03403 10.1643
rclavicle -2.8625e-014 2.38542e-015
rhumerus 4.9146 47.2129 -65.9705
rradius 41.6708
rwrist -15.8306
rhand -19.8111 1.68881
rfingers 7.12502
rthumb 6.52222 -28.1908
lclavicle -2.8625e-014 2.38542e-015
lhumerus 9.25203 -26.69 47.757
lradius 24.5267
lwrist 34.3186
lhand -19.7262 0.0959486
lfingers 7.12502
lthumb 6.60414 29.973
rfemur -58.4955 -20.9534 25.397
rtibia 119.574
rfoot -31.8824 -4.03804
rtoes -6.16724
lfemur -63.893 11.9024 -22.2108
ltibia 115.3
lfoot -21.7059 -15.6573
ltoes 5.30419
211
root 1.08625 9.51482 18.3605 -566.969 -17.0576 -173.362
lowerback 77.7022 1.83465 11.6842
upperback 22.8662 -9.0254 0.9363
thorax 6.08844 -10.2721 -1.13426
lowerneck -10.2615 -8.36718 -9.31525
upperneck -24.7006 -10.3964 26.363
head -3.3329 -8.01777 10.1269
rclavicle 3.81667e-014 2.26615e-014
rhumerus 4.87839 47.9376 -65.8541
rradius 41.7109
rwrist -16.3488
rhand -19.8856 1.55221
rfingers 7.12502
rthumb 6.45028 -28.3296
lclavicle 3.81667e-014 2.26615e-014
lhumerus 8.94808 -26.8602 47.8878
lradius 24.3298
lwrist 34.3764
lhand -19.3643 0.599685
lfingers 7.12502
lthumb 6.95349 30.4655
rfemur -59.1433 -21.4908 25.4422
rtibia 121.011
rfoot -32.1057 -4.01737
rtoes -5.93172
lfemur -64.7167 12.3597 -22.3631
ltibia 116.808
lfoot -21.9386 -15.8082
ltoes 6.00369
212
root 1.07099 9.32961 18.3517 -567.492 -17.0595 -173.228
lowerback 77.7723 1.79299 11.7595
upperback 22.9099 -9.10382 0.930415
thorax 6.15581 -10.3422 -1.15866
lowerneck -10.2175 -8.36174 -9.33623
upperneck -24.5128 -10.3933 26.3626
head -3.28124 -7.98799 10.1152
rclavicle 9.70069e-014 3.06128e-014
rhumerus 4.80329 48.7278 -65.7251
rradius 41.7321
rwrist -16.9033
rhand -20.0545 1.4008
rfingers 7.12502
rthumb 6.28718 -28.4859
lclavicle 9.70069e-014 3.06128e-014
lhumerus 8.5607 -26.9571 48.1433
lradius 24.1234
lwrist 34.5736
lhand -19.0998 1.13954
lfingers 7.12502
lthumb 7.20877 30.9968
rfemur -59.7666 -22.1299 25.4575
rtibia 122.445
rfoot -32.3737 -3.98926
rtoes -5.6642
lfemur -65.5171 12.7431 -22.5393
ltibia 118.293
lfoot -22.1736 -15.9455
ltoes 6.79488
